<?xml version="1.0" encoding="utf-8"?>
<!-- Generator: Adobe Illustrator 22.1.0, SVG Export Plug-In . SVG Version: 6.00 Build 0)  -->
<svg version="1.1" id="Layer_1" xmlns="http://www.w3.org/2000/svg" xmlns:xlink="http://www.w3.org/1999/xlink" x="0px" y="0px"
	 viewBox="0 0 432 432" style="enable-background:new 0 0 432 432;" xml:space="preserve">
<g>
	<path d="M218.2,421.8c-43.4-0.4-85.9-12.4-121.3-37.9C59.8,357.2,31.7,318.9,18.7,275C6.9,235.6,7.5,192.6,20,153.4
		c11.3-35.5,32.4-67.5,60.4-92.1c27.8-24.4,62-41.1,98.4-47.7c40.9-7.4,84.7-2.5,122.6,14.8c39.5,18.1,73.6,49.7,94.8,87.6
		c21.3,38.2,29.4,83.1,23.9,126.3c-5.6,43.7-24.9,83.9-55.3,115.6c-30.7,32-70.3,53.9-114.1,61C239.9,420.8,229,421.7,218.2,421.8z
		 M95.2,55.1c-9.1,5.5-16.9,13.5-24.5,21c2.8,0.3,5.8-2.7,7.9-4.2c2.6-1.8,5.1-3.7,7.4-5.9c2.2-2.1,4.1-4.5,6.1-6.8
		c0.9-1,1.8-1.9,2.6-3c0.4-0.6,0.9-1.3,0.7-1.3C95.9,54.4,95.1,55.1,95.2,55.1z M397.4,143c-0.1-0.4-0.1-0.8-0.2-1.1
		c-1,0.5,2.4,5.7,3,6.7c1.8,3,3.3,6.1,4.8,9.2c3,6.4,5.5,13,8.1,19.5c0.9-2.9-0.5-6.5-1.4-9.3c-1-3.2-2.2-6.3-3.6-9.3
		C405.6,153.4,402.5,146.3,397.4,143z M119.8,96.7c1.6-1.7,3.1-3.4,4.7-5.1c-5.2,1.4-10.3,3.3-15.3,5.3c-2.7,1.1-3.5,2.6-4.5,5.4
		c-0.6,1.9-1.2,4.2-0.6,6.2c2.8-2.4,5.7-4.8,8.6-7.2C114.9,99.6,116.9,97.1,119.8,96.7c-2.8,4.4-8.3,7.8-12.4,11.1
		c-4,3.3-7.2,6.2-6.6,11.9c4.4-1.9,8.8-3.8,13.2-5.7c2.1-0.9,4.1-1.8,6.2-2.7c2.1-0.9,5-1.6,6.7-2.9c1.1-0.8,0.8-0.1,1-1.8
		c0.1-0.9,0-1.9-0.1-2.8c-0.1-1.8-0.7-3.4-0.8-5.1c-0.1-1.2,0.4-4.4-1.2-4.9C124.9,93.5,120.7,96.3,119.8,96.7z M125.2,58.9
		c-2.1-0.1-2.9,2.9-3.7,4.4c-1.7,3.1-3.3,6.2-5,9.4c-0.7,1.2-1.4,2.4-2,3.7c-0.2,0.5-0.7,1.3-0.6,1.8c0.1,1.2-0.1,0.7,1,1.2
		c3,1.2,6.9,1.3,10.2,1.9c0-2.9,0-5.9,0-8.8c0-2.3-0.7-6.1,0.9-8c1.6,3.5,0.6,8.7,0.7,12.5c0,4,1.1,5.8,5,7.1
		c0.8,0.3,1.9,0.8,2.7,0.8c1,0,1.7-0.6,2.6-1.1c2.1-1.2,4.2-2.5,6.2-3.7c3.7-2.2,7.5-4.4,11.2-6.7c-1.6-2.6-4.4-4.7-6.7-6.7
		c-3.5-2.9-7.2-5.6-11-8.1c-1.4-0.9-7.4-5.5-8.8-4.4c-1.5,1.2-0.3,5.3-0.7,7c-0.2,0.7-0.8,2.5-1.6,2
		C125.1,62.8,125.2,59.5,125.2,58.9C125.5,58.6,125.5,58.6,125.2,58.9z M380.5,122.9c0.4,0.6-1.2-2-1.5-2.5
		c-1.2-1.6-2.6-3.1-3.9-4.6c-2.7-3-5.5-5.9-8.3-8.8c-0.2,2-0.6,4.1-0.1,6.1c0.3,1.2,1.1,2.1,1.3,3.2c0.2,1.3-0.2,3-0.3,4.4
		c-0.2,5.3-0.3,10.6-0.3,15.8c0,2.3,0,4.6,0.1,6.8c0.1,2.7,0.2,3.1,2.2,5.3c6.3,6.8,12,13.9,17.8,21.1c1-3.2,0.7-6.9,0.6-10.2
		c-0.2-5.3-0.8-10.6-1.6-15.8c-0.7-4.8-1.1-10.7-3-15.2c-1-2.4-4.4-4.1-6.5-5.6c-2.8-1.9-5.5-3.9-7.9-6.4c2.3,0.4,4.2,1.8,6.1,3.1
		C376.8,120.8,378.5,122.8,380.5,122.9z M321.8,56.5c5.4,1,10.1,3.1,15,5.5c2.5,1.2,4.9,2.5,7.3,3.9c1.2,0.7,2.3,1.6,3.6,2.1
		c0.8,0.4,2.6,0.4,3,1.1c-1.6-1.3-2.5-3.7-3.6-5.4c-1.4-2.1-3.1-3.7-5-5.2c-4.2-3.4-8.6-6.7-13.1-9.7c-8.8-6-18.1-11.1-27.8-15.6
		c-9.8-4.6-19.9-8.4-30.4-11.3c-5.5-1.6-11.1-2.9-16.8-4c-2.8-0.6-5.7-1-8.5-1.5c-2-0.3-5.4-1.6-7,0.1c6.5,3.6,12.8,7.6,18.4,12.6
		c2.8,2.5,5.4,5.2,7.8,8.1c2.1,2.6,5.1,7.7,8.4,8.5c4,0.9,8.4,0.7,12.4,1.3c4.1,0.5,8.2,1.3,12.2,2.1c4.3,0.9,8.6,1.9,12.9,3.2
		C314.5,53.3,318.7,54.2,321.8,56.5c-3.6,0.4-7.5-1.8-11.1-2.8c-4-1.1-8.1-2.2-12.2-3c-4.1-0.9-8.3-1.6-12.5-2.1
		c-2.1-0.2-4.2-0.5-6.3-0.7c-1.9-0.2-4.4-1.1-5.9,0.2c3.3,2.5,7.4,3.3,11.2,4.8c4.1,1.6,8,3.4,12,5.1c8.1,3.5,16,7.4,23.7,11.8
		c15.1,8.7,28.2,19.3,41.6,30.3c-0.3-5.4-2.3-10.8-4.3-15.9c-1-2.6-2-5.3-3.2-7.8c-1.2-2.5-2.8-3.7-5.2-5.1c-4.8-3-9.7-5.9-14.8-8.5
		c-2.4-1.2-4.8-2.3-7.3-3.2C325.6,59,323.2,58.5,321.8,56.5z M299.7,304.5c-1-5-3.3-9.9-5.1-14.7c-1.8-4.9-3.7-9.9-5.7-14.7
		c-4.2-10.1-8.8-20.1-13.5-30c-8.9-19-19.1-37.5-29.9-55.6c-5.5-9.2-11.3-18.4-17.2-27.4c-5.8-8.8-11.5-17.9-18-26.2
		c-2.8-3.7-6.6-3.8-10.9-4.6c-5-0.9-10.1-1.9-15.1-2.9c-10.4-2-21-3.2-31.5-4.4c-4.8-0.6-9.6-1.1-14.4-1.6c-1.1-0.1-2.2-0.3-3.2-0.3
		c-1.2,0-2.4,0-2.6,1c-0.5,1.8,1,5.7,1.3,7.5c2.1,10.3,4.7,20.6,7.3,30.8c5.1,20.4,11.6,41,19,60.7c7.4,19.9,15.4,39.7,24.3,58.9
		c2.3,5,4.7,9.9,7.1,14.8c2.1,4.2,3.8,9.6,7.4,12.8c7.5,6.8,17,11.9,25.6,17.1c9,5.5,18,11.1,27.3,16.1c2.3,1.3,4.7,2.5,7,3.7
		c1.6,0.9,1.5,0.8,2.9,0.1c1.8-1,3.4-2.7,4.9-4c10-9.2,19.2-19.5,27.7-30.2C296.1,309.4,298,307,299.7,304.5z M97,218.5
		c-1.4,0.6-0.5,3.2-0.3,4.7c0.2,1.8,0.5,3.7,0.7,5.5c0.6,3.9,1.2,7.8,1.9,11.6c1.4,7.5,3,15,4.8,22.4c3.5,14.4,8.2,28.6,13.9,42.3
		c5.5,13.4,11.9,26.5,19.5,38.9c3.8,6.1,7.9,12.1,12.2,17.9c1.6,2.2,3,4.5,5.6,5.6c3.5,1.5,7.6,2.5,11.3,3.5
		c7.3,2,14.8,3.2,22.2,4.6c7.3,1.3,14.7,2.9,22.2,3.6c2.9,0.3,5.8,0.9,8.5-0.5c3.5-1.7,6.8-4.4,10.1-6.6c0.7-0.5,3-1.5,3.2-2.3
		c0.2-1.2-1.6-2.9-2.3-3.9c-2.2-3.1-4.4-6.2-6.5-9.4c-8.3-12.4-15.9-25.2-22.9-38.3c-1.5-2.7-2.7-5.9-4.6-8.3c-2-2.5-5.1-4-7.6-6
		c-6.1-4.7-12.1-9.5-18.1-14.4c-13.3-10.8-26.4-22-38.6-34C119.9,243.3,108.5,230.9,97,218.5z M99.6,122.4
		c-3.6,17.4-5.6,35.2-5.9,53c-0.2,8.7,0.1,17.5,0.7,26.2c0.2,2.1,0.3,4.2,0.5,6.3c0.2,1.8,0,4.6,0.7,6.3c0.6,1.6,2.7,3.3,3.9,4.6
		c1.6,1.8,3.1,3.6,4.7,5.4c20,22.6,42.1,43.5,65.5,62.6c5,4.1,10,8.1,15.1,11.9c2.6,1.9,5.5,4.6,8.6,5.6
		c-14-30.1-27.8-60.4-38.6-91.8c-5.3-15.3-10-30.9-14.2-46.5c-2.2-8-4.2-16.1-6-24.2c-0.9-4-1.8-8.1-2.8-12.1
		c-0.4-1.8-0.8-3.6-1.2-5.4c-0.4-1.9-0.3-1.6-1.7-2c-1.9-0.6-4.4-0.4-6.4-0.5c-2.8-0.2-5.6-0.3-8.3-0.3
		C109.2,121.2,104.4,121,99.6,122.4z M59.1,165c-2.3,2.5-3.5,5.5-5.3,8.5c-1.9,3.3-3.8,6.2-4.6,9.9c-0.7,3.5-0.4,6.8-0.3,10.3
		c0.2,4.6,0.1,9.1,0.6,13.7c1.6,16.1,4.7,32.4,9.6,47.8c9.9,31.3,24.3,60.1,44.9,85.7c2.7,3.3,5.2,7.3,8.9,9.5
		c3.8,2.3,8.2,4,12.2,5.8c4.1,1.8,8.2,3.5,12.3,5.1c4,1.5,8.2,3.6,12.5,3.8c-7.9-12-16.1-23.4-22.6-36.3
		c-6.6-13.1-12.5-26.3-17.2-40.2c-4.7-14.2-9-28.6-11.5-43.3c-1.3-7.5-2.7-14.9-3.7-22.4c-0.4-3.1-0.4-6.3-1.9-9.1
		c-1.7-3.2-4.6-5.9-6.8-8.7C76.3,192.3,67.7,178.7,59.1,165z M311.2,163.8c-0.7-11.9-3.2-23.8-6-35.5c-1.4-5.9-3-11.7-4.6-17.5
		c-0.6-2.3-0.9-6.4-2.3-8.4c-1.4-2-5.3-3.1-7.4-3.9c-10.8-4.2-22-9.3-33.7-10.4c-6-0.5-12.4,0.2-18.4,0.4
		c-6.2,0.2-12.4,0.1-18.6,0.6c-13.6,1-27,3.3-40.4,5.9c5.5,7.7,11.8,15.2,18.3,22.1c3.3,3.5,7.9,5.8,11.9,8.5
		c4.2,2.9,8.2,6.5,12.8,8.8c3.8,2,8.2,2.6,12.3,3.8c5.1,1.4,10.2,2.9,15.3,4.3c10.1,2.8,19.9,6.6,29.8,9.9c5.4,1.8,10.7,3.7,16,5.7
		C300.9,160.1,305.9,163.1,311.2,163.8z M314.8,225.7c-17.3-22-37.1-42.2-58-60.8c-10.4-9.2-20.9-18.9-32.4-26.8
		c-2.3-1.6-5.1-2.6-7.8-3.2c-2.2-0.5-6.1-1.8-3.8,1.6c3.8,5.4,7.6,10.8,11.3,16.3c29.5,43.8,54.8,90.5,73.5,139.9
		c0.6,1.6,2.2,8.7,3.9,9c1.3,0.2,4.8-5.7,5.4-7c1.6-3.4,1.8-7.7,2.4-11.4c0.6-3.7,1.2-7.4,1.6-11.1c0.9-7.8,2.5-15.6,2.6-23.5
		C313.6,241.2,315.2,233.5,314.8,225.7z M105.5,346.2C77.9,311.5,58.5,270.8,50.8,227c-2.2-12.6-3.4-25.3-3.8-38.1
		c-2.3,0.6-3.3,5.1-4,7c-1.2,3-2.4,6.1-3.5,9.2c-2.1,6.1-4.2,12.3-5.4,18.6c-2.6,13.2-4.9,26.4-4.4,39.9c0.2,5.4-0.6,12.6,2,17.6
		c2.8,5.3,7.2,10.4,11,15c7.9,9.7,17.1,18.4,26.8,26.3C80.5,331.7,92.8,339.6,105.5,346.2z M135.4,44.5c31.6-8,64.5-10.3,96.7-4.7
		c-4.2,1.4-9.2,0-13.4-0.5c-4.1-0.4-8.2-0.6-12.3-0.7c-8.9-0.2-17.5-0.2-26.4,0.4c-8.6,0.6-17,1.4-25.4,3.2c-4.3,0.9-8.5,2-12.8,3.1
		c-2.5,0.6-9.3,1-10,4.1c2.3,0.4,5-0.5,7.3-0.9c2.4-0.4,4.9-0.9,7.3-1.3c5.5-0.9,10.9-1.3,16.4-1.4c10.7-0.1,21.1-0.1,31.7,1.3
		c4.9,0.6,9.9,1.3,14.7,2.4c2.4,0.5,4.9,1.1,7.4,1c2.4-0.1,4.7-0.9,7.1-1.3c5.3-1,10.7-1.5,16-2.1c2.5-0.3,5-0.6,7.6-0.9
		c1.6-0.2,4.9,0.1,6-1.4c-6.8-1.4-13.6-2.7-20.4-4.1c4-2.8,12.6,0.8,17,1.9c3.3,0.8,6.5,1.7,9.8,2.4c1.3,0.3,8.2,2,9.1,0.2
		c0.7-1.5-2.8-4.2-3.5-5c-2-2.3-3.9-4.6-6.1-6.8c-4.1-4.2-8.6-7.9-13.5-11.1C240.5,19,235,16.2,229,15c-6.6-1.3-13.6-0.5-20.2-0.3
		c-13.6,0.4-27.7,1.5-40.8,5.3c-6.4,1.9-12.3,5.9-17.6,9.9C145,34.1,139.4,38.8,135.4,44.5z M382.7,204.3
		c-4.5-13.4-10.3-26.4-17.1-38.8c-2.5,1.5-2.2,6.5-2.7,9c-0.8,4.2-2.1,8.2-3,12.3c-0.5,2.3,0.1,2.5,2,3.8c1.5,1,3.1,2,4.7,3
		c1.9,1.2,2.9,2,3.6,4.1c-2.3-1.2-10-8-11.7-5.2c-1.2,1.9-1.5,5.3-2.2,7.5c-0.7,2.3-1.4,4.6-2.2,6.8c-3.1,9.2-6.6,18.3-10.6,27.2
		c-2,4.6-4.2,9.1-6.4,13.5c-0.4,0.8-1.6,2.4-1.6,3.2c0,0.9,1.6,2.6,2,3.3c1.3,2.1,2.6,4.3,4,6.4c2.5,4.1,5.1,8.1,7.3,12.3
		c2.3,4.4,4.4,9,7.3,13.1c8.2-15,15.3-30.7,20.5-47c2.6-8,4.8-16.1,6.5-24.3c0.3-1.3,1.5-4.5,1.1-5.8c-0.5-1.5-3.2-3.2-4.4-4
		c-2.8-2.1-5.9-3.9-8.1-6.8C375.8,199.1,378.8,202.6,382.7,204.3z M357.9,187.5c1.7-4.7,2.6-9.4,3.5-14.3c0.7-3.7,3-8.9,1.3-12.5
		c-1.9-4.4-5.4-8.7-8.1-12.6c-3-4.2-6.2-8.3-9.4-12.4c-6.1-7.8-11.7-15.2-20.3-20.3c-4.3-2.6-8.7-4.9-13.2-7.3
		c-3.8-2-7.7-4.7-12-5.3c5.9,17.9,9.8,36.5,12.8,55.1c0.3,1.9,0.2,4.8,1,6.5c0.8,1.5,4.1,2.6,5.7,3.5c4.5,2.3,8.9,4.5,13.4,6.8
		C341,178.9,349.4,183.2,357.9,187.5z M31.6,285.4c0.4,5.6,1.9,11.2,3.5,16.5c1.7,5.7,4.4,9.9,7.7,14.8c6.9,10.4,15.1,20.4,24.3,29
		c17.9,16.8,38.5,30.5,61.2,39.8c6.5,2.7,13.1,5.2,19.9,7.2c6.2,1.8,12.7,3.9,19.2,3.9c-8.8-5.8-18.1-10.8-26.5-17.3
		c-9.2-7-17.6-14.9-25.7-23.2c-2-2-3.9-4.4-6.3-6c-2.5-1.6-5.3-2.9-7.9-4.4c-5.3-3-10.5-6.2-15.5-9.5c-9.7-6.5-19-13.7-27.5-21.6
		C48.2,305.7,39.6,295.7,31.6,285.4z M165.1,80.4c5,0.3,10-0.8,15-1.1c5.1-0.3,10.2-0.3,15.3-0.3c9.5,0,19.1,0.6,28.5,1.5
		c9.4,0.9,18.7,2.6,27.9,4.6c9.2,1.9,18.5,2.1,27.8,3.2c2.1,0.2,4.1,0.5,6.2,0.7c1.5,0.2,5.4,1.3,6.7,0.4c2.5-1.8-6.6-7.2-8-8.1
		c-7.9-5.1-16.1-9.6-24.6-13.4c-8.7-4-17.6-7.6-26.8-10.5c-4.3-1.4-8.6-2.6-13-3.8c-4.8-1.4-8.6-0.3-13.3,1
		c-10.4,2.8-20.5,6.3-30.4,10.5c-4.9,2-10,4-14.6,6.6c-0.6,0.4-1.7,0.8-2.2,1.4c-0.9,0.3-1,0.7-0.3,1.4c0.3,0.5,0.7,1,1.1,1.5
		C161.9,77.6,163.6,78.8,165.1,80.4z M312.9,343.8c9.4-10.6,18.9-21,27-32.7c4.1-6,8.1-12.1,12-18.2c1.1-1.8,2.7-3.7,2.3-5.9
		c-0.4-2.8-2.7-5.7-4-8.1c-3.6-6.4-7.3-12.8-11-19.1c-0.7-1.3-1.4-2.6-2.3-3.8c-0.4-0.5-0.8-1.2-1.3-1.6c-1-0.7-0.6-1.1-1.7-0.5
		c-0.9,0.5-1.6,2.8-2.1,3.7c-1,1.8-2,3.6-3,5.3c-3.5,6.2-7.1,12.4-10.9,18.3c-3.8,5.8-8.5,11.2-10.4,18c-1,3.9-2,7.9-2.6,11.9
		c-0.6,4,0.9,7.9,2,11.7c1.1,3.6,2.5,7.1,3.1,10.8c0.3,1.8,0.1,3.3,0.8,5C311.6,340.3,312.2,342,312.9,343.8z M311.7,166.6
		c-26.9-11.9-54.9-21.2-83.4-28.1c7.1,7.1,15.5,12.9,23.1,19.4c7.8,6.6,15.3,13.6,22.5,20.8c7.3,7.3,14.6,14.6,21.6,22.1
		c3.5,3.8,6.9,7.7,10.2,11.6c1.5,1.8,3.1,3.6,4.6,5.5c1,1.2,2.5,3.8,4.4,3.6C315.4,203.1,314,184.8,311.7,166.6z M369.3,331.6
		c3.8-3.1,6.7-7.3,9.8-11.1c2.9-3.7,6.2-7.4,7.4-12.1c2.6-9.9,5-20.4,5.4-30.7c0.5-10.7,0.7-21.5-0.3-32.3c-0.5-5.4-1.4-10.7-2.5-16
		c-1.1-5.2-1.6-10.7-4.4-15.2c-4.2,20.3-11.1,40.1-20.2,58.7c-2.2,4.4-4.4,8.8-6.8,13.1c-1.1,1.9-1,2.1-0.2,4.1
		c0.5,1.1,0.9,2.2,1.4,3.2c1,2.5,2,5,3,7.6C365.6,310.9,368.3,321.1,369.3,331.6z M314.3,167.6c-1,2.9,0.4,5.9,0.6,9.1
		c0.3,3.8,0.2,7.6,0.5,11.4c0.6,7.6,0.7,15.2,0.8,22.9c0,3.5,0.1,7.1,0.1,10.6c0,1.9-0.1,3.1,1.1,4.7c1.1,1.5,2.2,2.9,3.2,4.4
		c4.6,6.2,9.1,12.4,13.7,18.6c8.5-16.7,15.7-34.2,21-52.2c0.3-1.1,2.5-5.9,2-7c-0.5-1.1-4.2-2.6-5.1-3.2c-3.9-2.3-7.9-4.5-11.9-6.6
		C331.8,175.7,323.1,171.6,314.3,167.6z M367.6,334.4c-0.4-13.3-4.3-26.2-9.4-38.5c-0.9-2.3-1.8-6.8-4-3.3c-1.9,3-3.8,5.9-5.7,8.9
		c-3.8,5.7-7.7,11.2-11.8,16.7c-4,5.3-8.1,10.4-12.5,15.4c-2,2.3-4.1,4.6-6.3,6.9c-1.1,1.1-2.1,2.3-3.2,3.4
		c-0.2,0.2-1.5,1.3-1.6,1.7c-0.2,0.6,0.1,2.5,0.1,3.2c0.2,3,1.2,5.8,1.4,8.8c0.2,2.6-0.6,6.8,1.3,9c2.8,3.2,13.8-2.8,17-4.3
		C346.7,356.1,357.2,344.7,367.6,334.4z M364.2,112.8c1.3-1.9,0.3-5.9-0.5-7.9c-1.2-3-4.5-5.1-6.8-7.1c-5.8-5.1-11.7-9.7-18-14.2
		c-12.8-9.1-26.1-16.8-40.2-23.6c-3.5-1.7-7.1-3.2-10.8-4.5c-1.5-0.6-3.1-1.1-4.6-1.7c-1.4-0.6-3.4-1.8-4.9-1.7
		c-2.1,0-1.6,0.3-1,1.8c0.7,1.7,2.2,3.4,3.1,5c2,3.4,3.8,6.8,5.6,10.3c3,6,4.8,13.8,10.3,18c6.2,4.7,13.1,5.6,20.5,7.3
		C333.5,98.5,349,105.1,364.2,112.8z M48.4,158.5c-4.5,3.4-8.2,8.1-11.9,12.4c-3.4,4-6.7,8.2-9.5,12.6c-5.4,8.5-10.9,18.7-12.6,28.7
		c-0.8,5.2,0,10.8,0.5,16c0.5,5.8,1,11.6,1.5,17.4c0.6,5.4,2,10.1,4.2,15.1c2,4.6,4,10.7,8,13.8c-0.9-9.9-0.4-20.1,0.3-30.1
		c0.8-10.3,3.5-20.3,6.2-30.2c2.6-9.7,6.6-18.5,10.3-27.8c1.7-4.3,1.9-8.3,2-12.8C47.6,168.5,48.1,163.5,48.4,158.5z M97.4,124.9
		c-1.7-0.9-2.8,0.2-4.1,1c-2.2,1.4-4.6,2.3-6.8,3.7c-4.4,2.8-7.5,6.8-10.7,10.8c-3.5,4.4-6.8,8.8-10,13.4c-2,2.9-6.5,7.1-4.8,10.7
		c5.6,11.7,13.6,22.5,21.3,32.9c3.4,4.5,6.8,9.7,11.2,13.4C91,182.1,92,153.2,97.4,124.9z M206.3,130.8c-2.8-3.8-5.5-8-8.9-11.2
		c-3.9-3.7-8.9-6-13.5-8.7c-5-3-10-6-15.1-8.8c-1.8-1-4.7-3-6.9-3c-2.5-0.1-6.3,1.8-8.7,2.5c-5.6,1.6-11.2,3.3-16.7,5.2
		c-1.3,0.5-2.6,0.9-4,1.4c-1.8,0.7-1.9,1-2,2.8c-0.1,2.4,0.3,5.4,1.1,7.6c0.4,1,0,1,0.9,1.5c0.4,0.2,1.4,0.2,1.9,0.2
		c1.5,0.2,2.9,0.3,4.4,0.5c3.1,0.3,6.3,0.7,9.4,1c6.2,0.7,12.3,1.4,18.5,2.2C180,126,193.1,128.6,206.3,130.8z M415.5,237.1
		c1.3-4.6,1.4-9.7,1.8-14.5c0.4-5,0.6-10,0.3-15c-0.5-9.6-2.9-18.5-5.6-27.6c-2.7-9-6.4-17.6-10.6-26.1c-2.1-4.3-4.6-8.4-7.2-12.5
		c-2.3-3.5-4.4-7.9-7.9-10.3c0.9,9.5,2.7,18.9,3.1,28.5c0.2,4.5-0.7,10.2,1,14.4c1.7,4.1,4.8,7.9,7,11.8c4.5,8.2,8.4,16.7,11.2,25.6
		c1.4,4.4,2.7,8.9,3.8,13.4c0.6,2.4,1.1,4.9,1.3,7.4C413.8,234.3,413.6,235.9,415.5,237.1z M57.4,125.6c5-2.2,9-6.4,13.5-9.4
		c5.1-3.4,10.1-6.9,15.5-9.9c2.7-1.5,5.5-3,8.3-4.5c2.8-1.4,6.4-2.5,8.9-4.4c1.5-1.1,1.7-2.1,2.4-3.9c0.6-1.5,1.2-3,1.7-4.5
		c1.2-3,2.4-6.1,3.5-9.1c-9.5-2.2-21-4.2-30.7-1.8c-4.2,1.1-7.5,9.2-9.4,12.8c-3.2,6.1-6.1,12.4-8.7,18.8
		C60.4,114.8,58.2,120.2,57.4,125.6z M386.7,211.3c1.2,7.6,3.6,15,4.8,22.6c1.3,8.6,2,16.8,2,25.4c0,8.1,0.7,16.6-0.7,24.6
		c-0.7,3.8-1.1,7.7-1.7,11.6c-0.3,1.9-0.7,3.8-1.2,5.7c-0.6,2.1-0.4,2.3,0.2,4.4c9.1-17.2,17.6-34,22.4-53c1.2-4.6,1.4-7.7-0.5-12.2
		c-1.6-3.9-4.1-7.4-6.6-10.8C400.2,222.6,393.7,216.5,386.7,211.3z M234.8,368.2c8.8-5.9,17-12.6,24.8-19.8
		c-9.8-6.2-20.3-11.5-30.3-17.4c-10.1-6-19.7-12.6-29.5-19.2c4.8,10.5,10.9,20.5,16.9,30.3C222.2,350.9,227.7,360.6,234.8,368.2z
		 M209.7,51.7c-26.3-5.9-53.5-5.8-79.9,0c5.4,4.8,11.9,8.4,17.6,12.9c1.4,1.1,2.9,2.3,4.3,3.4c1.2,1,3.4,3.4,4.9,3.8
		c2.1,0.7,7.9-3.3,10.2-4.4C180.7,61,195.1,55.8,209.7,51.7z M307.5,94.5c-0.5,1.5,4.9,4.8,6.1,5.9c2.6,2.4,5.2,4.8,7.8,7.3
		c5,4.7,9.7,9.3,15.3,13.2c5.2,3.5,10.2,7.3,15,11.3c4.5,3.7,8.7,8.8,14,11.2c0.1-4.9,0.4-9.8,0.3-14.8c0-2.4-0.1-4.8-0.3-7.2
		c-0.1-1.8-0.1-4.9-1.2-6.2c-1.5-1.7-4.8-2.9-6.7-3.9c-3.1-1.6-6.2-3-9.3-4.3c-6.8-2.9-13.8-5.6-20.9-7.8
		C321.1,97.1,314.2,94.5,307.5,94.5z M261.2,349.4c-4.2,3.5-8.3,7.1-12.5,10.5c-2.2,1.8-4.5,3.6-6.8,5.3c-1.3,1-2.6,2-4,3
		c-0.7,0.5-1.3,1-2,1.5c0.2,0.3,0.4,0.6,0.6,0.9c0.6,2,3,4.5,4.3,6.1c1.8,2.1,3.2,3.7,6,3.7c6.1-0.1,12.2-0.9,18.2-1.4
		c8.4-0.7,15.2-7.4,18.4-14.9c0.4-0.9,0.8-1.9,1.1-2.9c0.6-1.8,0.5-1.7-1.2-2.5c-2.6-1.2-5.1-2.4-7.7-3.4
		C271.2,353.4,266.1,350,261.2,349.4z M272.7,50c-4.1-0.8-7.9-2.5-12.1-2.8c-4.4-0.3-8.9,0-13.4,0.4c-9,0.8-17.9,2-26.7,4
		c12.1,3.9,24.2,7.7,35.8,12.8c6.1,2.7,12,5.7,17.9,8.8c5.6,2.9,10.6,6.7,16.2,9.5C285.7,71.2,279.9,60.2,272.7,50z M184.7,396.3
		c3.7,4.1,8.2,4.9,13.5,5c6.4,0.1,13,0.4,19.4,0.1c5.7-0.3,11.6-3,16.8-5.1c5.3-2.1,10.4-4.3,15.5-6.9c-1.8-2-3.5-5-5.7-6.6
		c-1.4-1.1-2.6-0.8-4.5-0.8c-1.3,0-2.6-0.1-3.8-0.1c-5.9-0.2-12.6-1.5-18.4,0c-5.4,1.4-10.4,5.2-15.5,7.4
		C196.2,391.7,190.5,394,184.7,396.3z M286.8,357.5c4.2-8.6,7.6-17.5,10.6-26.5c1.4-4.1,2.9-8.3,4.1-12.5c0.5-1.9,1.3-3.9,1-6
		c-0.3-2-1.4-4-2.1-5.9c-11.5,14.4-23.8,28.3-37.3,40.9c3.7,2.3,7.7,4.1,11.8,5.8C278.8,355,282.6,357,286.8,357.5z M163.4,399.3
		c0.1-1.6-2.1-1.4-3.5-1.8c-1.2-0.3-2.3-0.6-3.5-0.9c-2.9-0.8-5.7-1.7-8.5-2.5c-5.6-1.6-11-3.5-16.4-5.6
		c-10.2-3.8-20.1-8.9-29.5-14.6c-9.7-5.8-18.7-12.2-27.3-19.4c-8.6-7.2-16.1-15.5-23.7-23.7c5.4,9.9,13.3,18.4,21.1,26.4
		c8.1,8.3,16.9,15.9,26.3,22.7c9.2,6.6,19.5,13.9,30.4,17.5c5.5,1.8,11.3,2.4,17,2.5C151.6,399.9,157.6,400.2,163.4,399.3z
		 M179.3,395c-4-4.6-9.3-8.1-13.6-12.4c-2.3-2.3-4.6-4.7-6.8-7.2c-2-2.3-3.7-5.1-6.2-6.8c-2.5-1.6-5.6-2.3-8.3-3.3
		c-3.3-1.1-6.5-2.3-9.7-3.6c-6.1-2.4-12.2-6-18.5-7.8c9.1,10.2,19.3,19.5,30.4,27.5c5.4,3.9,11,7.5,16.7,10.8c2.8,1.6,6,3.9,9.1,4.9
		C174,397.7,178.3,397,179.3,395z M313.4,378.1c-8.5,3.7-16.9,7.6-25.5,11c-8.5,3.3-17.4,5.2-25.8,8.6c4.2,3.6,9,6.5,14.3,8.1
		c6.1,1.8,11.6-1.3,17.2-3.6c2.9-1.2,5.8-2.5,8.7-3.8c2.2-1,5.1-2,6.7-3.9C312.4,390.3,313.6,383.3,313.4,378.1z M157.1,370
		c4.5,5.9,9.5,11.5,15,16.5c2.7,2.5,5.5,4.8,8.5,7c1.5,1.1,1.9,1.3,3.6,0.8c1.2-0.3,2.3-0.7,3.4-1.1c5.2-1.8,10.3-3.9,15.3-6.2
		c3.7-1.7,8.1-3.5,11.1-6.3C194.7,378.6,175.7,375.3,157.1,370z M316.4,228.2c-1.1,20.7-2.7,41.4-6.8,61.8
		c4.3-4.1,7.2-9.6,10.3-14.6c3.3-5.3,6.5-10.7,9.4-16.2c0.7-1.2,1.3-2.5,2-3.7c0.5-0.9,2.2-3.3,2.1-4.3c-0.1-1-2.1-3-2.7-3.9
		c-0.9-1.3-1.8-2.6-2.7-3.8C324.5,238,320.7,232.9,316.4,228.2z M412,237c1.1-5.4-1.2-11.3-2.6-16.6c-1.5-5.9-3.3-11.7-5.5-17.4
		c-2.2-5.4-4.8-10.8-7.6-15.9c-1.3-2.4-2.7-4.7-4.1-7.1c-0.5-0.9-1.4-3.5-2.6-2.8c-0.6,0.3-0.4,3.3-0.5,3.9
		c-0.2,5.8-0.7,11.4-1.5,17.2c-0.2,1.5-0.5,3-0.7,4.5c-0.2,1-1.1,3.7-0.7,4.6c0.6,1.6,4.2,3.7,5.5,5C399.5,219.7,407,227.5,412,237z
		 M178.1,93.7c11.5-2.6,23.3-4.3,35-5.4c6-0.6,12-0.9,18-1.2c2.8-0.1,5.7-0.4,8.5-0.4c2.9-0.1,5.1,0.2,7.7-1.1
		c-12.9-2.2-26.1-4.6-39.3-4.8c-6.7-0.1-13.4,0.1-20.1,0.3c-6.7,0.2-13.7-0.4-20.1,1.9C171.2,86.4,174.6,90.1,178.1,93.7z M47,128.9
		c2.2-0.7,5.5-1.1,7.3-2.6c1.5-1.3,2-3.5,2.5-5.3c1.6-4.8,3.2-9.6,5.1-14.2c3.9-9.3,8.8-18,13.8-26.8c-4.9-1.2-9,3.7-12.2,6.7
		c-4,3.6-7.8,7.4-11.1,11.6c-3.2,4-6.6,8.5-7.2,13.8C44.5,117.4,44.9,123.7,47,128.9z M384.8,204.8c1-5.2,1.9-10.2,2.5-15.4
		c0.5-4.8,1.7-10.3,0.5-15.1c-0.6-2.3-1.9-3.9-3.4-5.7c-1.6-1.8-3-3.9-4.6-5.8c-3.5-4.1-6.8-8.7-10.7-12.4c-2.5-2.4-2.5-0.5-2.8,2.2
		c-0.3,2.4-0.9,5-1,7.5c-0.1,2.4,1.4,4.5,2.5,6.5c1.3,2.4,2.6,4.8,3.9,7.2C376.8,183.8,380.7,194.4,384.8,204.8z M126,52.8
		c-4.2,0.2-8.4,2-12.3,3.4c-4.4,1.5-8.6,3.3-12.8,5.1c-7.4,3.2-16.7,6.7-20,14.7c9.9-0.3,19.3,0.3,29.1,1.7c1.8,0.3,1.7,0.2,2.6-1.4
		c0.6-1.1,1.3-2.2,1.9-3.3c1.2-2.2,2.5-4.4,3.7-6.5C120.8,62,123.4,57.4,126,52.8z M46.9,139c-8.5,9-15.8,19.1-21.5,30
		c-2.8,5.3-5.3,10.8-7.4,16.4c-2.1,5.6-4.2,11.5-2.3,17.4c4.3-12.1,11.3-23.1,19.5-32.9c2-2.4,4-4.6,6.1-6.9
		c2.1-2.2,4.9-4.2,6.7-6.6C51.7,151.5,50.4,143.5,46.9,139z M203.5,407.2c4.3,2.8,9,4.3,14,5.1c5.1,0.8,10.3,1.9,15.4,2.1
		c5.1,0.2,9.3-2.5,13.3-5.2c4.6-3.1,8.8-6.7,12.9-10.4c-4.4-1.2-9,0.8-13.3,1.6c-4.8,0.8-9.6,1.3-14.5,1.8c-4.7,0.5-9.4,0.6-14,1.6
		C212.7,404.7,208.1,406.2,203.5,407.2z M89,121.6c-8.9,2.2-18.3,2.1-27.3,4.6c-3.4,0.9-5.9,3.3-7,6.7c-0.6,1.9-0.8,3.9-1.2,5.8
		c-0.4,2.1-1.4,4.4-1.4,6.6c0,1,0.2,1.9,0.6,2.8c0.6,1.3,0.6,1.6,1.8,1.6c1.2,0,2.3-1.2,3.2-1.9c3.7-3,7.4-5.9,11.3-8.7
		C76.1,134,85.3,129.8,89,121.6z M303.3,318.3c-3.1,9.2-6.1,18.3-9.6,27.3c-0.9,2.2-1.8,4.5-2.7,6.7c-0.4,1.1-2.9,5.3-2.5,6.2
		c0.2,0.5,2.7,1.1,3.3,1.4c1.7,0.7,1.7,1.1,3.1,0.2c1.8-1.2,3.5-3,5.1-4.4c3.2-2.7,6.4-5.4,9.2-8.6c1.8-2.1,1.6-2.8,1.2-5.5
		c-0.3-2.1-0.6-4.1-1.1-6.2c-1-4.4-2.5-8.7-3.7-13.1C305.1,320.7,304.7,319.4,303.3,318.3z M406.2,151.8
		c3.3-1.3-12.2-30.6-14.1-33.9c-5.8-10.3-11.9-21.8-21.3-29.4c2.1,6,5.3,11.5,7.7,17.4c2.4,5.8,3.3,12.2,6,17.8
		c2.5,5.2,6.8,9,10.6,13.3C399.3,141.7,402.8,146.6,406.2,151.8z M266.3,393.6c9.2-2,18.1-4.8,26.8-8.3c4.1-1.6,8.1-3.4,12.1-5.3
		c2.8-1.3,9-3,8.4-6.9c-0.4-2.6-2.4-1.2-4.2-0.7c-2.3,0.7-4.6,1.3-6.9,1.9c-4.6,1.2-9.3,2.2-14,3.1c-2.4,0.5-4.7,0.9-7.1,1.3
		c-1.2,0.2-2.5,0.2-3.6,0.6c-1.4,0.5-1.7,0.8-2.7,2.2C272.3,385.5,269.3,389.5,266.3,393.6z M63.7,123.9c4.8-0.7,9.5-1.6,14.2-2.3
		c2.4-0.3,4.9-0.6,7.3-0.8c2.2-0.2,4.8,0,6.7-1.1c1.9-1,3.5-3.3,5-4.8c1.7-1.7,3.1-2.8,3.9-5.1c0.6-1.7,0.7-3.5,1.2-5.2
		c0.6-1.8,1.7-3.1,0.8-5.1C89.3,105.8,74.6,113.4,63.7,123.9z M46.1,132c-8.7,1.7-17.1,7.9-20.2,16.3c-1.8,5.1-3.3,10.3-4.7,15.5
		c-1.4,5.2-2.9,10.4-3.2,15.7c4.1-8.8,9-17.3,14.5-25.2c2.8-4,5.7-7.8,8.9-11.5c1.4-1.7,3.2-3.3,4.5-5.1C47,136,46.3,134.1,46.1,132
		z M129.4,106.1c4.5,1.3,9.4-1.4,13.7-2.8c5.5-1.8,11-3.5,16.4-5.5c-3.6-2.1-7.4-3.7-11.2-5.4c-3.5-1.6-7.2-4.1-11.1-4.2
		c-2.5-0.1-8.3,1.2-9.3,4.1c-0.6,1.7,0.5,5,0.7,6.8C128.9,101.4,129.2,103.7,129.4,106.1z M312,392.6c2.7,0.4,6.2-2.4,8.6-3.7
		c3.3-1.9,6.4-4.2,9.5-6.4c5.4-4,11.4-7.9,16.1-12.7c-4.6,0.2-9.3,0.4-13.9,0.6c-2.4,0.1-4.9-0.1-7.1,0.8c-1.7,0.7-3.4,1.6-5,2.5
		c-2.2,1.3-4.7,3-5.1,5.6C314.3,383.9,313.7,388.1,312,392.6z M156.4,407.7c-0.4,2.4,13.5,4.5,15.9,5c6.3,1.3,12.5,2.7,18.9,3.5
		c6.3,0.8,12.6,1.2,18.9,1.3c3.1,0,6.2,0,9.3,0c1.6,0,5.7,0.8,6.5-1.2c-6-1-11.7-2.7-17.5-4.4c-5.1-1.5-11.9-4.5-17.2-3.5
		c-5.7,1.1-12,0.7-17.9,0.6C167.6,409,162,408.4,156.4,407.7z M330.8,368.4c7.3,0.8,17.1,0.8,22.7-4.6c5.1-4.9,13.8-11,12.6-18.8
		c-5.9,3.8-11.5,8-17.8,11.3C342,359.6,336.1,363.5,330.8,368.4z M380.7,119.5c1.6-1.1-2.5-9.8-3.2-11.6c-1.7-4.3-3.5-8.5-5.5-12.6
		c-3.7-7.6-7.5-14.2-14.9-18.7c2.8,7.6,5.5,15.1,7.4,23c0.6,2.3,0.9,3.6,2.6,5.4c1.4,1.5,2.9,3.1,4.3,4.6
		C374.4,112.9,377.6,116.2,380.7,119.5z M141,86.8c4.7,3.5,11,5.5,16.3,7.9c3.1,1.4,5.1,2.3,8.5,1.7c3.4-0.6,6.7-1.3,9.9-2.8
		c-2.3-2.4-4.6-4.9-6.9-7.3c-0.8-0.9-2.3-3.3-3.5-3.7c-1.2-0.4-4,0.3-5.1,0.4C153.7,83.8,147.3,85.3,141,86.8z M278.6,377.5
		c11.9-1.9,23.8-4.4,35.2-8.2c-2.3-2.3-6.5-2.7-9.5-3.7c-2.9-0.9-7.9-3.6-10.8-2.3c-3.2,1.4-6.2,4.7-9,6.9
		C281.8,372.3,279,373.8,278.6,377.5z M412.2,261.6c-0.2,0-0.5-0.1-0.7-0.1c-1,6.4-4.2,12.8-6.8,18.7c-2.6,6.1-5.7,12.1-9,17.9
		c-2.9,5-6.4,9.8-8.9,14.9c-1.4,2.8-2.1,5.7-3.1,8.6c-0.9,2.5-2.4,4.7-2.2,7.3c8.5-9.1,14.4-20.7,19.4-32c2.5-5.7,4.7-11.6,6.7-17.5
		C409.5,273.6,411.6,267.7,412.2,261.6z M276.6,408.3c-3.5-1.9-7-3.9-10.5-5.8c-1.2-0.7-3.8-2.9-5.2-2.9c-1.3,0-2.9,2.1-3.8,2.9
		c-2.4,2.4-5.1,4.4-7.8,6.5c-2.2,1.8-5.2,2.9-6.7,5.4C254.2,414.1,265.7,412.3,276.6,408.3z M189.7,407.3c-3.4-2.4-7-3.5-10.7-5.2
		c-4.2-1.9-8.4-2.7-13-1.8c-4.5,0.8-9.2,1.3-13.7,1.6c-4.7,0.3-9.4-0.5-14.2-0.5C154.6,407.4,172.3,408.3,189.7,407.3z M363.1,158.2
		c1.6-2.5,2-5.4,2-8.3c0-2.2,0-3.6-1.6-5.1c-1.2-1.2-2.5-2.4-3.8-3.6c-5.6-5.2-11.5-10.4-18-14.6c-0.5-0.4-1.8-1.7-2.1-0.4
		c-0.1,0.5,3.3,3.8,3.8,4.4c2.4,2.8,4.6,5.7,6.8,8.7C354.8,145.4,359.1,151.8,363.1,158.2z M311.1,347.6c-4.9,4.4-9.7,8.9-14.6,13.3
		c2.2,1.5,4.9,2.4,7.4,3.1c2.1,0.6,6,2.1,8.2,1.5c1.3-0.4,1.1-1.3,1.2-2.7c0.1-1.4,0.1-2.8,0-4.2
		C313.1,354.9,312.2,351.2,311.1,347.6z M125.8,84.7c-1.9-1.4-4.1-2.3-6.3-3c-1.3-0.4-2.6-0.6-3.9-0.8c-1.7-0.3-2.1-0.5-3.1,1
		c-1.5,2.2-2,4.6-2.9,7c-0.9,2.2-2.5,4.3-1.8,6.8c4-1.4,8-2.7,12-4.1c1.7-0.6,3.7-1,5.1-2.1C126.5,88.1,125.9,86.8,125.8,84.7z
		 M110.5,45.3c3,0.8,5.9,1.6,8.9,2.5c2,0.6,5,2,7,0.4c1.7-1.4,1.9-4.9,2.6-6.9c1-2.9,2.2-5.8,3.7-8.5c-4.3,0.9-8.4,3.3-12.1,5.4
		C117.3,40.1,112.9,42.2,110.5,45.3z M89.6,64.1c1.3,1.1,12.6-6,14.5-6.9c5.2-2.5,10.5-4.6,15.8-6.8c-2.1-2.1-5.9-2.8-8.9-3.2
		c-2.8-0.3-5.1,0.6-7.2,2.5C98.8,54.3,94.2,59.1,89.6,64.1z M155.2,24.8c-0.9-1.8-6.7,1.2-8.3,1.8c-2.9,1.1-6.5,1.9-9.2,3.5
		c-2.4,1.4-4,4.1-5.3,6.5c-0.7,1.5-1.4,3-1.9,4.6c-0.3,0.9-1.6,3.6-1.3,4.5c0.9,2.4,4.1-2,5-2.9c2.1-2.1,4.2-4.3,6.4-6.4
		C145,32.1,149.8,27.9,155.2,24.8z M43.1,112.4c-3,4.2-5.4,8.9-7.7,13.6c-1.8,3.7-4.2,7.8-4.9,12c2.4-1.5,4.8-2.9,7.2-4.4
		c1.4-0.8,6.1-2.8,6.9-4.2c0.4-0.7-0.3-2.8-0.3-3.7c-0.1-1.6-0.3-3.2-0.4-4.8C43.6,118,43.4,115.2,43.1,112.4z M59,160.8
		c5.7-7.9,11.5-15.9,17.2-23.8c-5.2,2.8-10.1,6.1-14.8,9.8c-1.1,0.8-2.1,1.7-3.2,2.5c-0.7,0.5-3.4,2.2-3.6,3
		c-0.2,0.8,1.8,3.5,2.2,4.3C57.5,158,58.3,159.4,59,160.8z M166,97.6c0.9,2.1,2.5,2.6,4.5,3.7c2.4,1.3,4.7,2.7,7.1,4
		c4.7,2.7,9.5,5.3,14.2,8c-3.4-5.1-7.3-9.8-11.3-14.4c-0.7-0.8-1.8-2.6-2.7-3.1c-1-0.5-2.9-0.1-3.9,0.1
		C171.3,96.6,168.8,97.6,166,97.6z M323.2,112c-1.6-2.8-23.3-23.7-26.5-19.7c-0.8,1,1.4,6.1,2.1,7c1.5,2.1,4.4,2.9,6.6,4
		C311.4,106.2,317.3,109.1,323.2,112z M260,395.8c2.3-0.8,3.9-2.1,5.5-3.9c1.5-1.8,2.9-3.7,4.3-5.5c1.4-1.9,4-4,3.3-6.6
		c-7.1,1.8-12.9,6.7-19.4,9.8C255.1,392.2,257.2,394.4,260,395.8z M106.6,119.6c4.9,0.7,9.9,0.5,14.8,0.7c2.2,0.1,4.6,0.5,6.8,0.2
		c3-0.4,1.7-2.6,1.3-4.9c-0.2-1.1-0.4-2.2-0.6-3.3c-0.3-1.7-0.4-2-2.3-1.7c-2.1,0.4-4.2,1.6-6.2,2.3
		C115.6,114.9,110.9,116.8,106.6,119.6z M49.3,178.3c2.2-3.9,4.4-7.9,6.5-11.8c0.5-0.9,1.2-1.8,1.5-2.8c0.4-1.3,0.3-1.5-0.2-2.7
		c-0.8-2-1.7-3.9-3.1-5.7c-1.1-1.4-0.8-1-2.1-0.3c-0.8,0.4-1.2,1.1-1.5,1.8c-0.7,1.9-0.6,4.8-0.8,6.8
		C49,168.5,48.6,173.4,49.3,178.3z M251.7,391c-3.8,0.7-7,2.8-10.5,4.2c-4.1,1.6-8.2,3.2-12.2,4.9c9.5-0.3,18.9-1.3,28.1-3.8
		C255.4,394.5,253.6,392.7,251.7,391z M139,85.5c8.1-1.6,16.2-3.3,24.2-4.9c-1.8-1.6-3.6-3.3-5.4-4.9c-1.3-1.2-0.9-1.3-2.5-0.7
		c-1.2,0.4-2.4,1.4-3.6,2C147.3,79.5,142.8,82,139,85.5z M222.4,378.6c0.6,1.9,6.8,1.7,8.7,1.8c3.2,0.2,6.5,0.1,9.7-0.2
		c-0.6-2.6-4-7.9-6.7-8.7c-1.3-0.4-4.2,2.2-5.6,3C226.5,375.9,224.4,377.3,222.4,378.6z M294.2,92.1c-4.1-1.3-8.5-1.9-12.8-2.3
		c-3.3-0.3-7.4-1-10.6,0.1c8.7,2.6,17.2,5.9,25.8,9C295.8,96.6,295,94.3,294.2,92.1z M369.2,339.7c2.6-1.6,5.3-3.3,7.1-5.8
		c2.3-3.2,4.1-7.4,5.4-11.1c0.2-0.5,1.3-2.9,0.6-3c-0.8-0.1-1.7,1.6-2.3,2.3c-1.6,1.9-3.2,3.9-4.9,5.8c-1.6,1.9-3.2,3.8-4.8,5.7
		C368.8,335.5,369.2,337.3,369.2,339.7z M31.4,295.8c0.4-2.4-0.5-4-0.9-6.4c-0.4-2.7-0.7-5.2-1.3-7.9c-1.2-5.3-5.3-10.4-7.9-15.1
		c0.3,5.1,2.4,10.5,4.1,15.2C26.9,286.3,28.4,291.8,31.4,295.8z M264.3,380.7c-6.1,0.5-12.2,1-18.2,1.6c1,1.5,2.1,2.9,3.4,4.2
		c0.5,0.5,1.2,1.2,1.9,1.5c1.4,0.6,1.7,0.1,3.1-0.7C257.7,385.4,262.3,383.8,264.3,380.7z M367.4,337.3c-3.1,2.5-6,5.3-8.8,8
		c-2.1,2.1-4.7,4.3-6.2,6.8c3.2-2.2,6.6-4.1,9.8-6.3c1.4-1,2.8-2.1,4.1-3.3C367.9,341.1,367.4,339.5,367.4,337.3z M204.4,123.8
		c-1.1,1.1,1,2.9,1.9,4c1,1.3,2.1,3.4,3.5,4.1c1.6,0.8,6.4,2.2,7.8,1C213.2,129.9,208.8,126.9,204.4,123.8z M283.8,368
		c3.2-1.2,5.7-3.6,8.1-5.9c-0.9-0.4-2-1.2-3-1.3c-1.4-0.2-1.7,0.1-2.6,1.4C285.1,363.9,284.6,366,283.8,368z M47.7,134.6
		c2.9-1.5,5.2-3.3,6.3-6.5c-1.7,0.6-3.8,1.1-5.4,2c-1.2,0.6-0.8,0.2-1.1,1.3C47.3,132.2,47.7,133.9,47.7,134.6z M207.7,403.8
		c-4.2-0.2-7.9-1.4-11.9-0.7C198.4,406.2,202.3,406.5,207.7,403.8z M316.6,370c-0.4,0.6-0.9,1.5-0.8,2.3c0.3,1.7,0.9,1.2,2.1,1.1
		c1.8-0.2,3.9-1.8,4.9-3.1C320.7,369.3,318.6,369.7,316.6,370z M194.9,406c0.7-1.3-0.4-1.3-1.5-1.8c-1.1-0.6-2.2-1.2-3.4-1.6
		c-1.7-0.6-3.5-1-4.9,0.6C188.4,404.1,191.4,406.3,194.9,406z M48.6,137.4c0.8,1.6,1.5,3.2,2.3,4.8c1-2.4,2.1-6,1.6-8.7
		C51.2,134.9,49.9,136.1,48.6,137.4z M303.1,308.6c1.2-2.9,2.9-5.3,1.7-8.5c-0.8,1.2-2,2.7-2.5,4.1
		C301.8,305.6,302.6,307.1,303.1,308.6z M177.2,398.7c2.7,1.1,4.8,1.2,7.6,0.4c-1-0.8-2.1-2.1-3.5-2.1
		C180,396.9,178.4,398.1,177.2,398.7z M359.1,75.3c-1.5-2.7-3.3-5.1-6.1-6.6C353.7,72,356.3,73.8,359.1,75.3z M368.2,347.5
		c2.5-2.4,4.1-4.5,4.6-7.9C369.7,341.5,368.4,343.8,368.2,347.5z M132.2,86.7c-0.8-1.9-2.7-1.7-4.3-2.1c0,1.2,0,2.4,0,3.6
		C129.5,88.2,131,87.9,132.2,86.7z M90.1,125.5c1.8-1.1,4.2-1.4,5.7-3.4C92.6,121.4,92,121.8,90.1,125.5z M96.6,120.6
		c1.7-1.4,2.4-2,1.9-4.1c-1.2,1-2.4,1.9-3.6,2.9C95.5,119.8,96.1,120.2,96.6,120.6z M324.1,367.6c2.7,1.3,3.7-0.6,5.5-1.5
		C327.4,365.6,326.2,367,324.1,367.6z M78.3,74.4c-0.8,0.6-1.5,1.2-2.7,2.1C77.6,76.9,78.5,76.4,78.3,74.4z M294.8,88.2
		c0.6,1.7,1,2.4,2.6,1.6C296.5,89.2,296,88.9,294.8,88.2z M52.6,151.4c-0.2-0.2-0.3-0.3-0.5-0.5C51.3,152.1,51.6,152.4,52.6,151.4z
		 M32.4,298.2c0.2-0.4,0.1-0.5-0.4-0.3C32.1,298.3,32.2,298.4,32.4,298.2z M275.2,377.2c0-0.3-0.2-0.4-0.4-0.3
		C274.7,377.3,274.8,377.4,275.2,377.2z"/>
</g>
</svg>
